PathFileType	4	(X/Y/Z)	Patient3_L_KneeIso_Processed.trc
DataRate	CameraRate	NumFrames	NumMarkers	Units	OrigDataRate	OrigDataStartFrame	OrigNumFrames
100.000000000000	100.000000000000	6	33	mm	100.000000000000	226	       301
Frame#	Time	L.Toe			R.Toe			L.Midfoot.Superior			Neck			R.Midfoot.Superior			R.Shoulder			L.Shank.Lateral			R.Wrist			L.Shoulder			R.Midfoot.Lateral			L.Heel			R.Heel			R.Patella			L.Wrist			R.Shank.Inferior			R.Shank.Lateral			L.Elbow			L.Asis			L.Shank.Inferior			L.Patella			L.Thigh.Lateral			L.Thigh.Superior			R.Elbow			R.Shank.Superior			L.Thigh.Inferior			R.Thigh.Superior			L.Midfoot.Lateral			R.Thigh.Lateral			L.Shank.Superior			R.Thigh.Inferior			Sacral			R.Asis			Sternum			
		X1	Y1	Z1	X2	Y2	Z2	X3	Y3	Z3	X4	Y4	Z4	X5	Y5	Z5	X6	Y6	Z6	X7	Y7	Z7	X8	Y8	Z8	X9	Y9	Z9	X10	Y10	Z10	X11	Y11	Z11	X12	Y12	Z12	X13	Y13	Z13	X14	Y14	Z14	X15	Y15	Z15	X16	Y16	Z16	X17	Y17	Z17	X18	Y18	Z18	X19	Y19	Z19	X20	Y20	Z20	X21	Y21	Z21	X22	Y22	Z22	X23	Y23	Z23	X24	Y24	Z24	X25	Y25	Z25	X26	Y26	Z26	X27	Y27	Z27	X28	Y28	Z28	X29	Y29	Z29	X30	Y30	Z30	X31	Y31	Z31	X32	Y32	Z32	X33	Y33	Z33	

226	3.250000000000	722.373925562555	68.487656585188	377.095638420382	690.305658384019	40.985954128288	588.792623161957	602.560228971047	114.738002675687	379.919787502952	481.135021897117	1485.184823681968	639.386265106194	565.533732679649	90.865090240942	590.089723183681	501.977911000549	1436.827922864300	785.479309122060	520.529718827609	371.645633825586	336.803494924011	585.122878761725	1171.560121308197	1112.831219021487	529.938115756398	1472.660493434793	500.664024062605	478.728218316090	30.713356586940	638.361358650254	427.884551493578	57.069488517319	385.516405811317	391.774139406085	37.000946519957	580.652751310909	604.579784046781	492.214587124985	648.663362471509	678.800499113094	1311.186958321976	496.669404725845	534.481501798423	214.495462599949	621.938544596822	487.756302356888	342.013140237217	706.033594857143	558.123296138289	1182.584177939133	316.961553398974	595.400287526841	987.244290277679	450.286695292143	575.946272443211	258.569960575204	390.289996590222	658.408499075090	516.134651770513	440.915167676021	574.176836230403	690.247703094358	374.964362416895	657.082476559349	766.812811882859	441.146968820308	402.179951684104	1133.969952465174	937.379394483101	571.054174671391	384.998943890154	654.842619178232	655.863265602592	640.861485652289	437.383671252108	634.722594409353	711.051391959898	691.890455766116	512.947876048947	57.054935492145	329.558461450463	544.057938980421	656.670803859778	739.587918651639	611.550294349407	411.029724649290	399.494785500811	619.812315105176	598.947501109178	667.241078378469	426.230917185062	1006.974613596178	590.137569969989	598.059548922031	971.058436536820	714.033106819850	614.938567722240	1388.178297951457	642.513210837626	
227	3.260000000000	724.420358064869	68.984533538057	377.676564563512	690.306747202573	40.977357692730	588.796344784506	604.396394052060	114.696344294841	380.176473312264	481.024403663159	1485.187588668515	639.354718074322	565.523146411205	90.853813646474	590.080434202835	501.841600162787	1436.837753590601	785.460936269936	520.968216100712	371.236589003605	336.620619897002	585.034342294503	1171.595161094549	1112.807249972317	529.859049111019	1472.670317139670	500.645058187301	478.733504202651	30.718756566370	638.359706048572	429.966708302912	56.256588104839	385.385336660628	391.759209183275	37.017190758197	580.651364664824	604.582672893879	492.215622244584	648.637636605352	678.782187313916	1311.249297810112	496.698854076120	534.508942644729	214.486546305313	621.896286433985	487.763069438161	342.019461019838	705.986004336428	558.186748748889	1182.584400976989	316.977690453554	595.500134692858	987.282286613585	450.298996923267	576.924050330429	258.489703511049	390.328418051103	657.758169394993	516.479692144400	440.859014066360	573.899781770550	690.339834777249	374.818246579663	656.954340355242	766.757276893560	441.107403519970	402.109538527971	1133.949188427208	937.345390781879	571.069076477575	385.007930889868	654.819184169153	655.453997621570	640.851178855478	437.301950094031	634.757626038635	711.045910574528	691.878557726332	515.163812602399	56.567922466733	329.642011816977	544.079132301568	656.668557641125	739.560941184890	611.608377863971	411.163336579091	399.461913383408	619.833284317025	598.940740061710	667.222474357162	426.291539932016	1006.980352908162	590.110418969238	598.092874696164	971.062953311331	714.045521060924	614.860268224040	1388.234437705242	642.527674788712	
228	3.270000000000	726.423266885959	69.502797788965	378.210653090869	690.308506236269	40.968162304077	588.799941733516	606.193566731690	114.678116947546	380.410838403682	480.916150800078	1485.191817056055	639.325450402691	565.509397218647	90.840617179881	590.071934711531	501.706626104780	1436.849258979916	785.444397761482	521.377046742245	370.846614845364	336.436814361560	584.938391332245	1171.649541257803	1112.791200154617	529.785459413335	1472.685132771756	500.630693329735	478.739029156996	30.724422321626	638.358355219578	432.012396743523	55.477896895533	385.261502379117	391.745506047900	37.032409319253	580.650247048725	604.571372787751	492.219584645980	648.597926419296	678.775195004131	1311.323373120966	496.733341933551	534.534821094791	214.477371472972	621.844570079111	487.766146736827	342.025571876976	705.931377683533	558.271838790340	1182.594485713975	316.993737508372	595.594633946112	987.322202829909	450.302817944746	577.873133874893	258.427805700626	390.353688848111	657.107265713704	516.825498937501	440.783661193303	573.615938032845	690.438155933833	374.666235508167	656.818445375958	766.704149259406	441.059407825422	402.037749919732	1133.933898634823	937.315899354579	571.077352880384	385.021982056907	654.787496463287	655.039308457483	640.844428462398	437.212996843140	634.789657221454	711.039854195296	691.845209527856	517.331662634794	56.110849486713	329.719721108009	544.103013867998	656.667695655080	739.527473076380	611.647371110900	411.307524851584	399.411143954946	619.842944428866	598.932994142733	667.184337700553	426.354799077924	1006.992105489625	590.085327042313	598.135253033226	971.065989837244	714.047196496976	614.786183319552	1388.296984785615	642.546588197996	
229	3.280000000000	728.387643912333	70.043955825149	378.686500945743	690.310784418204	40.958711174947	588.803370022709	607.955799044052	114.682916402744	380.620191214486	480.811682459177	1485.197449121842	639.299157534556	565.493537829000	90.826164065103	590.064331470644	501.574902541067	1436.862067307147	785.430194537413	521.752416255761	370.474126447634	336.256481899606	584.837138326255	1171.723174377063	1112.782604114890	529.718461794263	1472.704953901469	500.621447821270	478.744660259421	30.730222088988	638.357267489050	434.027192585437	54.729640686737	385.155709979243	391.733366433563	37.046246520559	580.649526697505	604.546977636692	492.226299221081	648.546356358981	678.779122764323	1311.407773321653	496.772288193465	534.558255393053	214.468110569287	621.785679820629	487.764900839489	342.031746905549	705.871552275788	558.376782940445	1182.615201029665	317.008716310832	595.682356923026	987.363533453031	450.298159961647	578.795597063020	258.383638456782	390.365847757580	656.458417231616	517.171992430691	440.685362460600	573.321456398128	690.542269997678	374.508082487130	656.672650107116	766.653484729376	440.998641474124	401.965623199031	1133.924203924771	937.291655178307	571.078691544134	385.040463617705	654.749129234342	654.619426963666	640.841356864755	437.112205923784	634.817490552549	711.033594245633	691.792506324157	519.452925248890	55.681590458484	329.795533030459	544.128106410385	656.668417852933	739.488448222867	611.667168263687	411.462392571258	399.340710386758	619.841315784120	598.924749334571	667.128833570950	426.419148685395	1007.009417808511	590.062312287404	598.184847352797	971.067668412799	714.038454772090	614.717155113342	1388.364562432591	642.569685848241	
230	3.290000000000	730.316928251038	70.608287989874	379.093917190517	690.313426763178	40.949338513359	588.806606233161	609.685915536225	114.709945023789	380.802301648215	480.712292341372	1485.204358181013	639.276491034039	565.476587368169	90.811103011781	590.057698166786	501.448129059138	1436.875745509242	785.418762555531	522.090851190022	370.117596526464	336.083909794434	584.732718210704	1171.815480151888	1112.780887451675	529.659038872360	1472.729596096244	500.617753110617	478.750254580091	30.736026084169	638.356394215741	436.014893127279	54.008626686630	385.078119722281	391.722974240630	37.058482581433	580.649272757572	604.511020042329	492.235494236081	648.485349161305	678.793273650629	1311.500666904496	496.815116740762	534.578506719775	214.458945520569	621.722024681556	487.758897740189	342.038255657802	705.808408456308	558.499305117434	1182.646959936883	317.021734635919	595.762163023993	987.405738207466	450.285246615851	579.692932905003	258.356391944323	390.365174985304	655.814306650006	517.518776019572	440.560864066533	573.012949369217	690.651544447949	374.343747536375	656.515456606755	766.605300738599	440.920809678736	401.894149076654	1133.920035294543	937.273286070537	571.073067153714	385.062610684122	654.705776198281	654.194873280325	640.841896213694	436.995150863113	634.840177314028	711.027479476458	691.723125281998	521.527776215850	55.278205116060	329.873194101054	544.152959464427	656.670881977717	739.444887653040	611.667775960858	411.627654363906	399.249349002779	619.828879366568	598.916459973588	667.058695915698	426.483060519724	1007.031600109043	590.041182678703	598.239638089808	971.068164301998	714.019907814706	614.653866637197	1388.435508414943	642.596665420604	
231	3.300000000000	732.212894300774	71.194695740954	379.424633001994	690.316285801027	40.940348101939	588.809642120541	611.385430575398	114.757937401337	380.955633759216	480.619090896280	1485.212363247433	639.258030409374	565.459469171737	90.796037043300	590.052080228806	501.327718404346	1436.889813246885	785.410452239685	522.389422306311	369.775578003588	335.923078872773	584.627206745420	1171.925401710618	1112.785410231436	529.607980088492	1472.758683626514	500.619932448346	478.755667382500	30.741710155066	638.355680512857	437.977349069347	53.312278839180	385.037820756054	391.714379655971	37.069025126804	580.649506155713	604.465413216600	492.246806964476	648.417536061316	678.816670003062	1311.599885815938	496.861276587893	534.595012810913	214.450065190818	621.656046720348	487.747926319759	342.045350875744	705.743798328865	558.636692566572	1182.689782788632	317.032046372297	595.833207206824	987.448266288461	450.264478368251	580.566012478488	258.345046446201	390.352255543180	655.177529319590	517.865154877762	440.407618197099	572.687638519005	690.765114806189	374.173432945775	656.346062929710	766.559579656366	440.821880915170	401.824216230859	1133.921153410380	937.261318508744	571.060753454525	385.087562691466	654.659185526914	653.766412073464	640.845793941036	436.857812589651	634.857076756804	711.021823373138	691.640203913755	523.555119803838	54.898910031311	329.956164226685	544.176233399791	656.675197775064	739.397866332653	611.649338972265	411.802623098704	399.136426301200	619.806572554624	598.908530401952	666.977103940681	426.545076900235	1007.057745738778	590.021570572500	598.297525025892	971.067703237934	713.992397009465	614.596793058499	1388.507953078072	642.627195553877	
